<svg width="206" height="46" viewBox="0 0 206 46" fill="none" xmlns="http://www.w3.org/2000/svg">
<path d="M31.9092 0.718018V21.0589H12.6678V19.9594C12.6678 17.6494 14.5404 15.7768 16.8504 15.7768H22.2222C20.3926 13.7858 17.764 12.4857 14.8432 12.4857C9.31592 12.4857 4.83515 16.956 4.83515 22.4704C4.83515 27.9849 9.31592 32.4552 14.8432 32.4552C19.0553 32.4552 22.6596 29.8592 24.1364 26.1835V38.9679C22.0427 39.8267 19.7494 40.3003 17.3453 40.3003C7.47506 40.3003 0.0234371 32.3176 0.0234375 22.4704C0.0234379 12.6233 7.47506 4.64059 17.3453 4.64059C20.8499 4.64059 24.119 5.64705 26.8779 7.38607V5.80324C26.8779 5.7957 26.8779 5.77846 26.8779 5.7524C26.8779 2.97371 29.1305 0.718018 31.9092 0.718018Z" fill="url(#paint0_linear_408_3962)"/>
<path d="M42.3541 12.2632C34.9324 12.6755 32.4585 17.8982 31.4964 23.5668L31.9087 21.1967V7.86519C34.1077 5.80361 37.956 4.56667 40.8215 4.56665C50.4629 4.56657 59.259 10.7514 59.6713 22.0006C59.6713 32.5399 51.3608 41.0838 40.8215 41.0838C37.0792 41.0838 33.5885 40.0065 30.6425 38.1453V41.463C30.6425 43.5722 28.9327 45.2821 26.8235 45.2821H25.3117L25.3117 23.5668H45.7831V24.9076C45.7831 27.2893 43.8523 29.2202 41.4705 29.2202H35.6139C37.5675 31.3511 40.3743 33.2913 43.4931 33.2913C50.4629 33.2913 54.1797 26.9276 54.1797 22.0006C54.1797 17.0736 49.7757 11.8509 42.3541 12.2632Z" fill="url(#paint1_linear_408_3962)"/>
<path d="M31.7914 22.497C31.7354 22.8462 31.6785 23.2008 31.6109 23.5671H26.7866C25.9722 23.5671 25.312 24.2273 25.312 25.0416L25.312 38.514C22.1702 39.9248 18.8524 40.3007 17.0657 40.3007C17.0657 40.3007 9.35879 33.1614 9.36915 30.8174C10.1938 31.3672 14.0421 33.2913 17.478 32.0544C20.914 30.8174 23.5002 28.2546 25.2802 23.6498L25.3326 23.5126C25.6127 22.7681 25.8949 21.9059 26.1366 21.0319H30.4247C31.2445 21.0319 31.9091 20.3674 31.9091 19.5476L31.9091 7.83784C32.8711 6.87577 34.5204 5.9137 35.6199 5.63882C39.9433 4.123 41.5919 4.17276 42.6293 6.46345C45.3064 9.92015 45.833 11.6071 41.9421 12.2632C41.9421 12.2632 37.5441 12.2632 34.6578 15.6992C32.7337 18.448 32.1181 20.4597 31.7914 22.4967L31.7914 22.497Z" fill="url(#paint2_linear_408_3962)"/>
<path d="M69.0234 4.27108H74.475C76.2691 4.27108 77.7234 5.71574 77.7234 7.49783V36.9382C77.7234 38.7203 76.2691 40.165 74.475 40.165H69.0234V4.27108ZM77.9465 21.1395L90.5231 5.48513C91.1394 4.71789 92.0739 4.27108 93.0621 4.27108H101.704L87.9849 20.9736L103.21 40.165H94.2177C93.2067 40.165 92.2533 39.6974 91.6386 38.9L77.9465 21.1395Z" fill="white"/>
<path d="M118.638 40.718C116.63 40.718 114.771 40.589 113.061 40.3309C111.388 40.0728 109.641 39.6303 107.819 39.0035C105.848 38.3398 104.305 37.2706 103.19 35.7957C102.074 34.284 101.517 32.4589 101.517 30.3204V14.6134C101.517 12.8436 101.907 11.2581 102.688 9.85703C103.506 8.45594 104.547 7.34981 105.811 6.53865C106.926 5.8381 108.302 5.24816 109.938 4.76884C111.574 4.28952 113.098 3.99455 114.511 3.88394C115.812 3.77332 117.188 3.71802 118.638 3.71802C120.348 3.71802 121.835 3.79176 123.099 3.93924C124.364 4.04986 125.776 4.30795 127.338 4.71353C129.123 5.22973 130.591 5.85653 131.744 6.59395C132.896 7.33137 133.863 8.36376 134.644 9.69111C135.462 11.0553 135.871 12.6961 135.871 14.6134V30.3204C135.871 32.3114 135.331 34.0259 134.253 35.4639C133.212 36.9019 131.762 37.9896 129.903 38.727C126.557 40.0543 122.802 40.718 118.638 40.718ZM118.749 34.579C119.976 34.579 120.999 34.5421 121.817 34.4684C122.672 34.3578 123.546 34.1734 124.438 33.9153C125.33 33.6572 125.999 33.2332 126.446 32.6433C126.929 32.0165 127.171 31.2422 127.171 30.3204V14.5581C127.171 12.862 126.483 11.6637 125.107 10.9632C123.732 10.2257 121.594 9.85703 118.694 9.85703C115.794 9.85703 113.656 10.2073 112.28 10.9079C110.905 11.6084 110.217 12.8251 110.217 14.5581V30.3204C110.217 31.2422 110.458 32.0165 110.942 32.6433C111.425 33.2332 112.132 33.6572 113.061 33.9153C113.953 34.1734 114.808 34.3578 115.626 34.4684C116.482 34.5421 117.523 34.579 118.749 34.579Z" fill="white"/>
<path d="M152.353 40.718C148.895 40.718 144.619 40.3862 139.526 39.7225V36.8979C139.526 34.9217 141.298 33.4131 143.269 33.6853C147.582 34.2811 150.647 34.579 152.464 34.579C157.297 34.579 159.714 33.3438 159.714 30.8735V28.5506C159.714 27.3707 159.361 26.4674 158.654 25.8406C157.985 25.2138 156.758 24.9004 154.974 24.9004H150.735C142.779 24.9004 138.801 21.7663 138.801 15.4983V12.8436C138.801 9.70955 140.121 7.40511 142.76 5.93028C145.4 4.45544 149.583 3.71802 155.308 3.71802C158.283 3.71802 162.056 3.95768 166.629 4.437V7.21902C166.629 9.15226 164.929 10.6484 162.994 10.4431C159.31 10.0524 156.655 9.85703 155.029 9.85703C152.092 9.85703 150.122 10.0967 149.118 10.576C148.04 11.0922 147.501 11.9034 147.501 13.0095V15.5536C147.501 17.434 149.099 18.3742 152.297 18.3742H156.647C160.774 18.3742 163.767 19.1301 165.626 20.6418C167.485 22.1535 168.414 24.4579 168.414 27.5551V29.9333C168.414 34.2103 166.871 37.1047 163.785 38.6164C162.298 39.3907 160.644 39.9253 158.822 40.2203C157.037 40.5521 154.881 40.718 152.353 40.718Z" fill="white"/>
<path d="M172.231 4.27108H177.683C179.477 4.27108 180.931 5.71574 180.931 7.49783V18.6508H196.323V7.49783C196.323 5.71574 197.778 4.27108 199.572 4.27108H205.023V40.165H199.572C197.778 40.165 196.323 38.7203 196.323 36.9382V24.7898H180.931V36.9382C180.931 38.7203 179.477 40.165 177.683 40.165H172.231V4.27108Z" fill="white"/>
<defs>
<linearGradient id="paint0_linear_408_3962" x1="3.40543" y1="25.6798" x2="30.5654" y2="20.3068" gradientUnits="userSpaceOnUse">
<stop stop-color="#FE3476"/>
<stop offset="1" stop-color="#FF9A02"/>
</linearGradient>
<linearGradient id="paint1_linear_408_3962" x1="74.4079" y1="24.8631" x2="21.7383" y2="24.2906" gradientUnits="userSpaceOnUse">
<stop offset="0.154991" stop-color="#3918FF"/>
<stop offset="0.506281" stop-color="#FE3476"/>
<stop offset="1" stop-color="#FF9A02"/>
</linearGradient>
<linearGradient id="paint2_linear_408_3962" x1="43.3165" y1="5.39131" x2="12.6677" y2="39.8884" gradientUnits="userSpaceOnUse">
<stop offset="0.126082" stop-color="#FE4465"/>
<stop offset="0.29868" stop-color="#AF0815"/>
<stop offset="0.538178" stop-color="#8C0101"/>
<stop offset="0.675023" stop-color="#B80E10"/>
<stop offset="0.933394" stop-color="#FF4E5A"/>
<stop offset="1" stop-color="#FF4664"/>
</linearGradient>
</defs>
</svg>
